<svg width="60" height="60" viewBox="0 0 60 60" fill="none" xmlns="http://www.w3.org/2000/svg">
<rect width="60" height="60" fill="#0C2801"/>
<path d="M44.1134 35.1234C44.1133 30.4717 40.3422 26.7007 35.6905 26.7007C31.0388 26.7007 27.2678 30.4717 27.2678 35.1234C27.2678 39.7752 31.0387 43.5463 35.6905 43.5463C40.3423 43.5463 44.1134 39.7752 44.1134 35.1234ZM47.0292 35.1234C47.0292 41.3855 41.9526 46.4621 35.6905 46.4621C29.4284 46.462 24.352 41.3855 24.352 35.1234C24.352 28.8613 29.4284 23.785 35.6905 23.7849C41.9526 23.7849 47.0291 28.8613 47.0292 35.1234Z" fill="#16CB3E"/>
<path d="M26.2736 13.9847C26.5765 13.7243 26.9729 13.5996 27.3702 13.6397L38.2141 14.7349C38.9936 14.8137 39.5715 15.4945 39.5227 16.2764C39.2889 20.0175 38.5388 23.6052 37.3544 26.9974V26.9976C35.5489 32.1642 32.7203 36.8537 29.1115 40.8177C27.7809 42.2853 26.3368 43.6573 24.7943 44.909C24.2897 45.3185 23.5748 45.3444 23.0417 44.9727L13.5962 38.3855C13.1978 38.1077 12.9639 37.6498 12.9724 37.1642C12.9809 36.6786 13.2307 36.2291 13.6385 35.9654C20.6012 31.4636 25.3262 23.7818 25.7677 15.0168L25.7732 14.9424C25.811 14.5718 25.9896 14.2287 26.2736 13.9847ZM28.5629 16.6907C27.7062 25.0425 23.342 32.3822 16.9755 37.1874L23.7947 41.9428C24.9082 40.9808 25.9633 39.9494 26.9515 38.8594L26.9537 38.857C30.3038 35.1779 32.9276 30.8266 34.6017 26.0358C35.5524 23.313 36.2003 20.4574 36.4983 17.4923L28.5629 16.6907Z" fill="#16CB3E"/>
</svg>
