<svg width="240" height="60" viewBox="0 0 240 60" fill="none" xmlns="http://www.w3.org/2000/svg">
<path d="M75.6991 45.8435H75.4606V50.1365H70.4634V8.97778H75.7559V24.7417H75.9944C78.3453 21.6298 82.8201 19.858 86.5226 19.858C95.6992 19.858 101.639 26.2635 101.639 35.4402C101.639 44.6169 95.6992 51.0224 86.5226 51.0224C82.5816 51.0224 77.698 49.0803 75.6991 45.8435ZM96.0399 35.4288C96.0399 28.8416 91.9286 24.5486 85.9206 24.5486C79.9126 24.5486 75.7445 28.8416 75.7445 35.4288C75.7445 42.0161 79.924 46.3091 85.9206 46.3091C91.9172 46.3091 96.0399 42.0161 96.0399 35.4288Z" fill="#0C2801"/>
<path d="M103.683 37.6096V20.7327H108.976V35.7242C108.976 42.4818 111.917 46.0139 117.562 46.0139C123.74 46.0139 127.204 41.7209 127.204 35.7242V20.7327H132.497V50.1366H127.5V46.0253H127.261C124.91 48.9668 121.151 50.7272 116.563 50.7272C108.681 50.7272 103.683 45.6732 103.683 37.6209V37.6096Z" fill="#0C2801"/>
<path d="M135.143 40.7213H140.731C140.731 43.8332 143.32 46.3091 149.487 46.3091C154.371 46.3091 157.187 44.6623 157.187 42.0161C157.187 35.0768 135.722 41.1983 135.722 29.0233C135.722 23.1403 141.128 19.8467 148.476 19.8467C157.006 19.8467 161.878 24.1965 161.878 29.5458H156.29C156.29 26.8428 153.939 24.5486 148.59 24.5486C143.536 24.5486 141.299 26.3771 141.299 28.8416C141.299 35.8377 162.764 29.6707 162.764 41.8911C162.764 47.5357 157.937 50.9997 149.362 50.9997C139.186 50.9997 135.132 46.241 135.132 40.71L135.143 40.7213Z" fill="#0C2801"/>
<path d="M165.422 50.1365V8.97778H170.714V24.5599H170.952C173.485 21.6752 177.244 20.1533 181.651 20.1533C189.533 20.1533 194.53 25.2073 194.53 33.271V50.1479H189.238V35.1563C189.238 28.3987 186.296 24.8666 180.652 24.8666C174.473 24.8666 170.714 29.1596 170.714 35.1563V50.1479H165.422V50.1365Z" fill="#0C2801"/>
<path d="M196.29 41.4935C196.29 36.0193 201.469 32.2033 209.17 32.2033C213.349 32.2033 217.347 33.2595 219.811 34.7359V31.147C219.811 26.9676 216.813 24.5598 211.168 24.5598C206.285 24.5598 202.696 26.3883 202.696 29.4434H197.233C197.233 23.5604 202.878 19.8579 211.282 19.8579C219.686 19.8579 225.104 24.151 225.104 31.2606V42.845C225.104 44.6735 225.865 45.4913 227.284 45.4913C227.989 45.4913 228.522 45.3777 228.931 45.0824V49.5458C228.045 49.8979 226.989 50.1364 225.751 50.1364C222.866 50.1364 221.288 48.9552 220.402 46.8428H220.163C217.699 49.0234 213.338 50.7269 208.227 50.7269C201.174 50.7269 196.29 47.3198 196.29 41.4935ZM219.811 42.4929V38.8473C217.517 37.6661 213.928 36.9052 210.408 36.9052C205.001 36.9052 201.878 38.7905 201.878 41.4935C201.878 44.7303 205.058 46.025 209.465 46.025C213.519 46.025 217.46 44.8439 219.811 42.4929Z" fill="#0C2801"/>
<path d="M56.6 37.4221C56.6 31.4755 52.3851 26.5131 46.7799 25.3599C46.759 25.4201 46.7387 25.4808 46.7177 25.541V25.5413C44.124 32.9633 40.0854 39.7115 34.9403 45.4422C37.1988 48.0713 40.5474 49.7369 44.2852 49.7369C51.0864 49.7368 56.5999 44.2234 56.6 37.4221ZM33.8638 10.4717C32.6112 22.6826 26.2304 33.414 16.922 40.4396L26.8923 47.3924C27.7943 46.613 28.67 45.8023 29.5174 44.9632C28.3599 42.701 27.7071 40.1378 27.707 37.4221C27.707 28.454 34.8282 21.1492 43.7244 20.8535C44.5588 17.8773 45.1485 14.8031 45.4661 11.6436L33.8638 10.4717ZM31.9702 37.4221C31.9702 38.8709 32.2211 40.261 32.6806 41.552C36.7647 36.7653 40.0353 31.265 42.2812 25.2701C36.433 26.2271 31.9702 31.3032 31.9702 37.4221ZM60.8631 37.4221C60.863 46.5778 53.4409 53.9999 44.2852 54C39.3995 54 35.0075 51.8864 31.9734 48.5239C30.8137 49.6423 29.606 50.7131 28.3538 51.7293C27.616 52.328 26.5708 52.3659 25.7914 51.8224L11.9812 42.1914C11.3987 41.7852 11.0567 41.1156 11.0691 40.4057C11.0816 39.6957 11.4467 39.0385 12.043 38.653C22.2231 32.0709 29.1315 20.8394 29.7771 8.02429L29.7851 7.91545C29.8403 7.3736 30.1014 6.87192 30.5166 6.51513C30.9595 6.13455 31.5391 5.95211 32.12 6.01079L47.9747 7.61213C49.1144 7.72725 49.9594 8.72266 49.888 9.86591C49.6427 13.7899 49.0088 17.5985 48.0309 21.2689C55.3825 22.9669 60.8631 29.5546 60.8631 37.4221Z" fill="#16CB3E"/>
</svg>
